<svg width="30" height="30" viewBox="0 0 30 30" fill="none" xmlns="http://www.w3.org/2000/svg">
<rect width="30" height="30" rx="15" fill="#9CFF79"/>
<path d="M10.8807 5C7.6527 5 5 7.64915 5 10.8807V19.1193C5 22.3473 7.64915 25 10.8807 25H19.1193C22.3473 25 25 22.3509 25 19.1193V10.8807C25 7.6527 22.3509 5 19.1193 5H10.8807ZM10.8807 6.81818H19.1193C21.3672 6.81818 23.1818 8.63281 23.1818 10.8807V19.1193C23.1818 21.3672 21.3672 23.1818 19.1193 23.1818H10.8807C8.63281 23.1818 6.81818 21.3672 6.81818 19.1193V10.8807C6.81818 8.63281 8.63281 6.81818 10.8807 6.81818ZM20.3693 8.80682C19.9112 8.80682 19.5455 9.17259 19.5455 9.63068C19.5455 10.0888 19.9112 10.4545 20.3693 10.4545C20.8274 10.4545 21.1932 10.0888 21.1932 9.63068C21.1932 9.17259 20.8274 8.80682 20.3693 8.80682ZM15 9.54545C11.9993 9.54545 9.54545 11.9993 9.54545 15C9.54545 18.0007 11.9993 20.4545 15 20.4545C18.0007 20.4545 20.4545 18.0007 20.4545 15C20.4545 11.9993 18.0007 9.54545 15 9.54545ZM15 11.3636C17.0206 11.3636 18.6364 12.9794 18.6364 15C18.6364 17.0206 17.0206 18.6364 15 18.6364C12.9794 18.6364 11.3636 17.0206 11.3636 15C11.3636 12.9794 12.9794 11.3636 15 11.3636Z" fill="#023047"/>
</svg>
