<svg width="30" height="30" viewBox="0 0 30 30" fill="none" xmlns="http://www.w3.org/2000/svg">
<rect width="30" height="30" rx="15" fill="#9CFF79"/>
<path d="M10.4167 11.6666C11.1071 11.6666 11.6667 11.1069 11.6667 10.4166C11.6667 9.72623 11.1071 9.16658 10.4167 9.16658C9.72635 9.16658 9.16671 9.72623 9.16671 10.4166C9.16671 11.1069 9.72635 11.6666 10.4167 11.6666Z" fill="#023047"/>
<path d="M9.16671 13.3333C9.16671 12.873 9.5398 12.4999 10 12.4999H10.8334C11.2936 12.4999 11.6667 12.873 11.6667 13.3333V19.9999C11.6667 20.4602 11.2936 20.8333 10.8334 20.8333H10C9.5398 20.8333 9.16671 20.4602 9.16671 19.9999V13.3333Z" fill="#023047"/>
<path d="M14.1667 20.8332H15C15.4603 20.8332 15.8334 20.4601 15.8334 19.9999V16.2499C15.8334 14.9999 18.3334 14.1666 18.3334 15.8332V20.0002C18.3334 20.4605 18.7065 20.8332 19.1667 20.8332H20C20.4603 20.8332 20.8334 20.4601 20.8334 19.9999V14.9999C20.8334 13.3333 19.5834 12.4999 17.9167 12.4999C16.25 12.4999 15.8334 13.7499 15.8334 13.7499V13.3333C15.8334 12.873 15.4603 12.4999 15 12.4999H14.1667C13.7065 12.4999 13.3334 12.873 13.3334 13.3333V19.9999C13.3334 20.4601 13.7065 20.8332 14.1667 20.8332Z" fill="#023047"/>
<path fill-rule="evenodd" clip-rule="evenodd" d="M21.6667 5.83325C23.0474 5.83325 24.1667 6.95254 24.1667 8.33325V21.6666C24.1667 23.0473 23.0474 24.1666 21.6667 24.1666H8.33337C6.95266 24.1666 5.83337 23.0473 5.83337 21.6666V8.33325C5.83337 6.95254 6.95266 5.83325 8.33337 5.83325H21.6667ZM21.6667 7.49992C22.1269 7.49992 22.5 7.87301 22.5 8.33325V21.6666C22.5 22.1268 22.1269 22.4999 21.6667 22.4999H8.33337C7.87314 22.4999 7.50004 22.1268 7.50004 21.6666V8.33325C7.50004 7.87301 7.87314 7.49992 8.33337 7.49992H21.6667Z" fill="#023047"/>
</svg>
