<svg width="30" height="30" viewBox="0 0 30 30" fill="none" xmlns="http://www.w3.org/2000/svg">
<path d="M15 0C6.72848 0 0 6.72848 0 15C0 23.2715 6.72848 30 15 30C23.2715 30 30 23.2715 30 15C30 6.72848 23.2715 0 15 0ZM22.3285 12.0809C22.335 12.2348 22.3389 12.3913 22.3389 12.5485C22.3389 17.3211 18.7043 22.8261 12.0593 22.8261C10.0193 22.8261 8.11957 22.228 6.52174 21.2028C6.80413 21.2367 7.09043 21.253 7.38326 21.253C9.0763 21.253 10.6343 20.6765 11.8696 19.7074C10.2887 19.6787 8.95565 18.632 8.49456 17.1985C8.71565 17.2409 8.94196 17.2637 9.17543 17.2637C9.50478 17.2637 9.82435 17.22 10.1263 17.1365C8.475 16.8033 7.23 15.345 7.23 13.5939C7.23 13.5783 7.23 13.5633 7.23 13.5483C7.71717 13.8189 8.27348 13.982 8.8663 14.0009C7.89587 13.352 7.25935 12.2472 7.25935 10.9937C7.25935 10.3317 7.43674 9.71152 7.74783 9.17674C9.53022 11.3622 12.1924 12.8002 15.1943 12.9515C15.1324 12.6867 15.0998 12.4115 15.0998 12.1285C15.0998 10.1335 16.7172 8.51609 18.7128 8.51609C19.7517 8.51609 20.6902 8.95435 21.3489 9.65674C22.1713 9.495 22.9454 9.19435 23.6433 8.78087C23.3739 9.62348 22.8007 10.3317 22.0539 10.7791C22.7857 10.6904 23.4809 10.4974 24.1298 10.2098C23.6459 10.9343 23.0335 11.5715 22.3285 12.0809Z" fill="#9CFF79"/>
</svg>
